{
    "accessors" : [
        {
            "bufferView" : 0, 
            "componentType" : 5121, 
            "count" : 36, 
            "max" : [
                23
            ], 
            "min" : [
                0
            ], 
            "type" : "SCALAR"
        }, 
        {
            "bufferView" : 1, 
            "componentType" : 5126, 
            "count" : 24, 
            "max" : [
                1.0000004768371582, 
                1.0, 
                1.0000005960464478
            ], 
            "min" : [
                -1.0000003576278687, 
                -1.0, 
                -1.0000003576278687
            ], 
            "type" : "VEC3"
        }, 
        {
            "bufferView" : 2, 
            "componentType" : 5126, 
            "count" : 24, 
            "max" : [
                1.0, 
                1.0, 
                1.0
            ], 
            "min" : [
                -1.0, 
                -1.0, 
                -1.0
            ], 
            "type" : "VEC3"
        }, 
        {
            "bufferView" : 3, 
            "componentType" : 5126, 
            "count" : 24, 
            "max" : [
                0.0, 
                0.0, 
                0.0
            ], 
            "min" : [
                0.0, 
                -1.1045650243759155, 
                0.0
            ], 
            "type" : "VEC3"
        }, 
        {
            "bufferView" : 4, 
            "componentType" : 5126, 
            "count" : 24, 
            "max" : [
                5.960464477539063e-08, 
                1.5749134263387532e-07, 
                5.960464477539063e-08
            ], 
            "min" : [
                -1.4210854715202004e-14, 
                -2.950819464331289e-07, 
                -5.960464477539063e-08
            ], 
            "type" : "VEC3"
        }, 
        {
            "bufferView" : 5, 
            "componentType" : 5126, 
            "count" : 24, 
            "max" : [
                0.3999999761581421, 
                0.0, 
                0.0
            ], 
            "min" : [
                -0.40000009536743164, 
                0.0, 
                0.0
            ], 
            "type" : "VEC3"
        }, 
        {
            "bufferView" : 6, 
            "componentType" : 5126, 
            "count" : 24, 
            "max" : [
                0.019419312477111816, 
                0.19611619412899017, 
                9.11376218937221e-09
            ], 
            "min" : [
                -0.019419312477111816, 
                -6.581346667644539e-08, 
                -1.0271207884215983e-08
            ], 
            "type" : "VEC3"
        }, 
        {
            "bufferView" : 7, 
            "componentType" : 5121, 
            "count" : 36, 
            "max" : [
                23
            ], 
            "min" : [
                0
            ], 
            "type" : "SCALAR"
        }, 
        {
            "bufferView" : 8, 
            "componentType" : 5126, 
            "count" : 24, 
            "max" : [
                1.0000004768371582, 
                1.0, 
                1.0000005960464478
            ], 
            "min" : [
                -1.0000003576278687, 
                -1.0, 
                -1.0000003576278687
            ], 
            "type" : "VEC3"
        }, 
        {
            "bufferView" : 9, 
            "componentType" : 5126, 
            "count" : 24, 
            "max" : [
                1.0, 
                1.0, 
                1.0
            ], 
            "min" : [
                -1.0, 
                -1.0, 
                -1.0
            ], 
            "type" : "VEC3"
        }, 
        {
            "bufferView" : 10, 
            "componentType" : 5126, 
            "count" : 3, 
            "max" : [
                2.4583333333333335
            ], 
            "min" : [
                0.0
            ], 
            "type" : "SCALAR"
        }, 
        {
            "bufferView" : 11, 
            "componentType" : 5126, 
            "count" : 18, 
            "max" : [
                1.0
            ], 
            "min" : [
                0.0
            ], 
            "type" : "SCALAR"
        }
    ], 
    "animations" : [
        {
            "channels" : [
                {
                    "sampler" : 0, 
                    "target" : {
                        "node" : 1, 
                        "path" : "weights"
                    }
                }
            ], 
            "samplers" : [
                {
                    "input" : 10, 
                    "interpolation" : "CUBICSPLINE", 
                    "output" : 11
                }
            ]
        }
    ], 
    "asset" : {
        "generator" : "Khronos Blender glTF 2.0 exporter", 
        "version" : "2.0"
    }, 
    "bufferViews" : [
        {
            "buffer" : 0, 
            "byteLength" : 36, 
            "byteOffset" : 0, 
            "target" : 34963
        }, 
        {
            "buffer" : 0, 
            "byteLength" : 288, 
            "byteOffset" : 36, 
            "target" : 34962
        }, 
        {
            "buffer" : 0, 
            "byteLength" : 288, 
            "byteOffset" : 324, 
            "target" : 34962
        }, 
        {
            "buffer" : 0, 
            "byteLength" : 288, 
            "byteOffset" : 612
        }, 
        {
            "buffer" : 0, 
            "byteLength" : 288, 
            "byteOffset" : 900
        }, 
        {
            "buffer" : 0, 
            "byteLength" : 288, 
            "byteOffset" : 1188
        }, 
        {
            "buffer" : 0, 
            "byteLength" : 288, 
            "byteOffset" : 1476
        }, 
        {
            "buffer" : 0, 
            "byteLength" : 36, 
            "byteOffset" : 1764, 
            "target" : 34963
        }, 
        {
            "buffer" : 0, 
            "byteLength" : 288, 
            "byteOffset" : 1800, 
            "target" : 34962
        }, 
        {
            "buffer" : 0, 
            "byteLength" : 288, 
            "byteOffset" : 2088, 
            "target" : 34962
        }, 
        {
            "buffer" : 0, 
            "byteLength" : 12, 
            "byteOffset" : 2376
        }, 
        {
            "buffer" : 0, 
            "byteLength" : 72, 
            "byteOffset" : 2388
        }
    ], 
    "buffers" : [
        {
            "byteLength" : 2460, 
            "uri" : "twoCube.bin"
        }
    ], 
    "materials" : [
        {
            "name" : "Material", 
            "pbrMetallicRoughness" : {
                "baseColorFactor" : [
                    0.6400000190734865, 
                    0.6400000190734865, 
                    0.6400000190734865, 
                    1.0
                ], 
                "metallicFactor" : 0.0
            }
        }
    ], 
    "meshes" : [
        {
            "extras" : {
                "targetNames" : [
                    "Key 1", 
                    "Key 2"
                ]
            }, 
            "name" : "Cube", 
            "primitives" : [
                {
                    "attributes" : {
                        "NORMAL" : 2, 
                        "POSITION" : 1
                    }, 
                    "indices" : 0, 
                    "material" : 0, 
                    "targets" : [
                        {
                            "NORMAL" : 4, 
                            "POSITION" : 3
                        }, 
                        {
                            "NORMAL" : 6, 
                            "POSITION" : 5
                        }
                    ]
                }
            ], 
            "weights" : [
                0.0, 
                0.0
            ]
        }, 
        {
            "name" : "Cube.001", 
            "primitives" : [
                {
                    "attributes" : {
                        "NORMAL" : 9, 
                        "POSITION" : 8
                    }, 
                    "indices" : 7, 
                    "material" : 0
                }
            ]
        }
    ], 
    "nodes" : [
        {
            "name" : "Camera", 
            "rotation" : [
                0.483536034822464, 
                0.33687159419059753, 
                -0.20870360732078552, 
                0.7804827094078064
            ], 
            "translation" : [
                7.481131553649902, 
                5.34366512298584, 
                6.5076398849487305
            ]
        }, 
        {
            "mesh" : 0, 
            "name" : "Cube", 
            "scale" : [
                0.582442045211792, 
                0.582442045211792, 
                0.582442045211792
            ], 
            "translation" : [
                0.0, 
                1.6390271186828613, 
                -0.0
            ]
        }, 
        {
            "mesh" : 1, 
            "name" : "Cube.001", 
            "scale" : [
                0.582442045211792, 
                0.582442045211792, 
                0.582442045211792
            ]
        }, 
        {
            "name" : "Lamp", 
            "rotation" : [
                0.16907575726509094, 
                0.7558802962303162, 
                -0.27217137813568115, 
                0.570947527885437
            ], 
            "scale" : [
                1.0, 
                1.0, 
                0.9999999403953552
            ], 
            "translation" : [
                4.076245307922363, 
                5.903861999511719, 
                -1.0054539442062378
            ]
        }
    ], 
    "scene" : 0, 
    "scenes" : [
        {
            "name" : "Scene", 
            "nodes" : [
                2, 
                1, 
                3, 
                0
            ]
        }
    ]
}
